<svg width="121" height="116" viewBox="0 0 121 116" fill="none" xmlns="http://www.w3.org/2000/svg">
<path d="M121 68.2353H105.484C104.274 73.0118 102.352 77.4471 99.7182 81.4047L110.679 91.9129L95.7324 106.242L84.7712 95.7341C80.6429 98.1906 76.0165 100.033 71.1765 101.125V116H49.8235V101.125C44.9835 100.033 40.3571 98.1906 36.2288 95.7341L25.2676 106.242L10.1782 91.7765L21.1394 81.2682C18.5771 77.3106 16.6553 72.8753 15.5165 68.2353H0V47.9694H15.4453C16.5841 43.1929 18.5771 38.7576 21.1394 34.7318L10.1782 24.2235L25.1253 9.89412L36.0865 20.4024C40.2147 17.8776 44.9124 16.0353 49.8235 14.8753V0H71.1765V14.8753C76.0165 15.9671 80.6429 17.8094 84.7712 20.2659L95.7324 9.75765L110.822 24.2235L99.8606 34.7318C102.423 38.7576 104.416 43.1929 105.555 47.9694H121V68.2353ZM60.5 78.4706C72.3153 78.4706 81.8529 69.3271 81.8529 58C81.8529 46.6729 72.3153 37.5294 60.5 37.5294C48.6847 37.5294 39.1471 46.6729 39.1471 58C39.1471 69.3271 48.6847 78.4706 60.5 78.4706Z" fill="#0FA958"/>
</svg>
