<svg width="103" height="104" viewBox="0 0 103 104" fill="none" xmlns="http://www.w3.org/2000/svg">
<circle cx="51.3284" cy="52.2189" r="51.2338" fill="#E4E4E4"/>
<path d="M38.2907 40.6304C37.5315 41.8585 37.3975 42.7963 37.3975 43.7118C37.3975 45.4312 39.6304 49.5621 39.6304 51.795C39.6304 53.9163 38.7372 55.1444 38.7372 55.1444H35.3879C35.3879 55.1444 36.281 53.9163 36.281 51.795C36.281 49.5621 34.0481 45.4312 34.0481 43.7118C34.0481 42.7963 34.1821 41.8585 34.9413 40.6304H38.2907V40.6304ZM49.4552 40.6304C48.6961 41.8585 48.5621 42.7963 48.5621 43.7118C48.5621 45.4312 50.795 49.5621 50.795 51.795C50.795 53.9163 49.9018 55.1444 49.9018 55.1444H53.2512C53.2512 55.1444 54.1444 53.9163 54.1444 51.795C54.1444 49.5621 51.9115 45.4312 51.9115 43.7118C51.9115 42.7963 52.0454 41.8585 52.8046 40.6304H49.4552V40.6304ZM42.1983 40.6304C41.4391 41.8585 41.3051 42.7963 41.3051 43.7118C41.3051 45.4312 43.538 49.5844 43.538 51.795C43.538 53.9163 42.6449 55.1444 42.6449 55.1444H45.9942C45.9942 55.1444 46.8874 53.9163 46.8874 51.795C46.8874 49.5621 44.6545 45.4312 44.6545 43.7118C44.6545 42.7963 44.7885 41.8585 45.5476 40.6304H42.1983V40.6304ZM65.5322 29.4658C62.0936 29.4658 59.2578 32.056 58.8782 35.3831L56.4443 58.4938H32.954C31.6142 58.4938 30.5201 59.6772 30.7211 61.0169C31.8822 68.4526 38.2683 74.1242 45.7709 74.1242C53.5415 74.1242 59.9276 68.0283 60.7538 60.2131L63.3217 35.9413C63.4333 34.8025 64.3711 33.9317 65.5322 33.9317C66.7604 33.9317 67.7652 34.9365 67.7652 36.1646C67.7652 36.8345 67.5419 38.9557 67.5419 38.9557L71.9407 39.514C71.9407 39.514 72.231 37.1471 72.231 36.1646C72.231 32.4803 69.2166 29.4658 65.5322 29.4658V29.4658ZM45.7709 69.6583C41.4391 69.6583 37.5761 66.9118 35.8791 62.9596H55.5065C53.8988 66.9342 50.1028 69.6583 45.7709 69.6583Z" fill="black"/>
</svg>
