<svg width="103" height="104" viewBox="0 0 103 104" fill="none" xmlns="http://www.w3.org/2000/svg">
<circle cx="51.4478" cy="52.2189" r="51.2338" fill="#E4E4E4"/>
<path d="M62.375 45.9313V43.9375C62.3696 42.0165 61.6831 40.1759 60.4653 38.8176C59.2474 37.4592 57.5973 36.6935 55.875 36.6875H52.625V31.25H59.125C59.556 31.25 59.9693 31.441 60.274 31.7809C60.5788 32.1208 60.75 32.5818 60.75 33.0625C60.75 33.5432 60.9212 34.0042 61.226 34.3441C61.5307 34.684 61.944 34.875 62.375 34.875C62.806 34.875 63.2193 34.684 63.524 34.3441C63.8288 34.0042 64 33.5432 64 33.0625C63.9947 31.6222 63.4793 30.2426 62.5662 29.2242C61.6532 28.2058 60.4163 27.631 59.125 27.625H46.125C45.694 27.625 45.2807 27.816 44.976 28.1559C44.6712 28.4958 44.5 28.9568 44.5 29.4375C44.5 29.9182 44.6712 30.3792 44.976 30.7191C45.2807 31.059 45.694 31.25 46.125 31.25H49.375V36.6875H46.125C44.4027 36.6935 42.7526 37.4592 41.5347 38.8176C40.3169 40.1759 39.6304 42.0165 39.625 43.9375V45.9313C37.7915 46.353 36.1443 47.4664 34.9604 49.0839C33.7766 50.7014 33.1284 52.7244 33.125 54.8125V72.9375C33.125 73.8989 33.4674 74.8209 34.0769 75.5008C34.6864 76.1806 35.513 76.5625 36.375 76.5625H65.625C66.487 76.5625 67.3136 76.1806 67.9231 75.5008C68.5326 74.8209 68.875 73.8989 68.875 72.9375V54.8125C68.8716 52.7244 68.2234 50.7014 67.0396 49.0839C65.8557 47.4664 64.2085 46.353 62.375 45.9313V45.9313ZM46.125 40.3125H55.875C56.737 40.3125 57.5636 40.6944 58.1731 41.3742C58.7826 42.0541 59.125 42.9761 59.125 43.9375V45.75H42.875V43.9375C42.875 42.9761 43.2174 42.0541 43.8269 41.3742C44.4364 40.6944 45.263 40.3125 46.125 40.3125V40.3125ZM65.625 72.9375H36.375V54.8125C36.3803 53.3722 36.8957 51.9926 37.8088 50.9742C38.7218 49.9558 39.9587 49.381 41.25 49.375H60.75C62.0413 49.381 63.2782 49.9558 64.1912 50.9742C65.1043 51.9926 65.6197 53.3722 65.625 54.8125V72.9375Z" fill="black"/>
</svg>
