<svg width="104" height="104" viewBox="0 0 104 104" fill="none" xmlns="http://www.w3.org/2000/svg">
<circle cx="52.2139" cy="52.2189" r="51.2338" fill="#E4E4E4"/>
<path d="M52.5 27.125C51.2929 26.2197 49.8575 25.6683 48.3547 25.5328C46.8519 25.3973 45.341 25.683 43.9914 26.3578C42.6418 27.0326 41.5067 28.0699 40.7135 29.3534C39.9202 30.637 39.5 32.1161 39.5 33.625V38.5H36.25C35.388 38.5 34.5614 38.8424 33.9519 39.4519C33.3424 40.0614 33 40.8881 33 41.75V67.75C33 70.3359 34.0272 72.8158 35.8557 74.6443C37.6842 76.4728 40.1641 77.5 42.75 77.5H63.875C66.0299 77.5 68.0965 76.644 69.6202 75.1202C71.144 73.5965 72 71.5299 72 69.375V41.75C72 40.8881 71.6576 40.0614 71.0481 39.4519C70.4386 38.8424 69.612 38.5 68.75 38.5H65.5V33.625C65.5 32.1161 65.0798 30.637 64.2865 29.3534C63.4933 28.0699 62.3582 27.0326 61.0086 26.3578C59.659 25.683 58.1481 25.3973 56.6453 25.5328C55.1425 25.6683 53.7071 26.2197 52.5 27.125V27.125ZM42.75 33.625C42.75 32.3321 43.2636 31.0921 44.1779 30.1779C45.0921 29.2636 46.3321 28.75 47.625 28.75C48.9179 28.75 50.1579 29.2636 51.0721 30.1779C51.9864 31.0921 52.5 32.3321 52.5 33.625V38.5H42.75V33.625ZM54.6677 29.569C55.4019 29.0787 56.2555 28.797 57.1373 28.754C58.0191 28.7109 58.896 28.9082 59.6745 29.3246C60.4529 29.741 61.1037 30.361 61.5573 31.1184C62.0109 31.8758 62.2503 32.7422 62.25 33.625V38.5H55.75V33.625C55.75 32.1495 55.3567 30.765 54.6677 29.569ZM42.75 74.25C41.0261 74.25 39.3728 73.5652 38.1538 72.3462C36.9348 71.1272 36.25 69.4739 36.25 67.75V41.75H55.75V69.375C55.75 71.2048 56.3545 72.8915 57.375 74.25H42.75ZM68.75 69.375C68.75 70.6679 68.2364 71.9079 67.3221 72.8221C66.4079 73.7364 65.1679 74.25 63.875 74.25C62.5821 74.25 61.3421 73.7364 60.4279 72.8221C59.5136 71.9079 59 70.6679 59 69.375V41.75H68.75V69.375Z" fill="black"/>
</svg>
