<svg width="104" height="104" viewBox="0 0 104 104" fill="none" xmlns="http://www.w3.org/2000/svg">
<circle cx="52.0945" cy="52.2189" r="51.2338" fill="#E4E4E4"/>
<path d="M61.61 24.735C61.9753 24.3819 62.4646 24.1864 62.9726 24.1905C63.4806 24.1947 63.9666 24.3983 64.326 24.7573C64.6854 25.1164 64.8894 25.6022 64.8941 26.1102C64.8987 26.6182 64.7037 27.1077 64.3509 27.4733L61.1967 30.625H66.8542C67.6757 30.625 68.4042 31.1417 68.6806 31.9115L71.9098 40.9532C72.0141 41.2457 72.0466 41.559 72.0045 41.8667C71.9625 42.1744 71.847 42.4674 71.668 42.7212C71.4889 42.9749 71.2515 43.1819 70.9757 43.3247C70.7 43.4675 70.3939 43.5419 70.0833 43.5417H67.3838L63.284 69.5042C62.7415 73.2887 59.5123 75.8333 55.6115 75.8333H48.3885C44.4851 75.8333 41.2559 73.2887 40.7186 69.53L36.6163 43.5417H33.9193C33.6087 43.5419 33.3026 43.4675 33.0268 43.3247C32.7511 43.1819 32.5136 42.9749 32.3346 42.7212C32.1556 42.4674 32.0401 42.1744 31.9981 41.8667C31.956 41.559 31.9885 41.2457 32.0928 40.9532L35.322 31.9115C35.4564 31.5348 35.7041 31.2088 36.0311 30.9785C36.3581 30.7482 36.7484 30.6247 37.1484 30.625H55.7174L61.61 24.735V24.735ZM63.4623 43.5417H40.5378L44.5548 68.9539C44.8106 70.7493 46.3425 71.9583 48.3885 71.9583H55.6167C57.6627 71.9583 59.1946 70.7493 59.4555 68.9255L63.4623 43.5417ZM65.4902 34.5H38.515L36.6705 39.6667H67.3373L65.4928 34.5H65.4902Z" fill="black"/>
</svg>
