<svg width="103" height="104" viewBox="0 0 103 104" fill="none" xmlns="http://www.w3.org/2000/svg">
<circle cx="51.3333" cy="52.2189" r="51.2338" fill="#E4E4E4"/>
<path d="M72.8741 54.493H32.4266V35.5332C32.4246 34.8192 32.5643 34.1119 32.8375 33.4522C33.1108 32.7926 33.5122 32.1936 34.0184 31.6902L34.0606 31.648C34.854 30.8558 35.8727 30.3278 36.9774 30.1362C38.0822 29.9446 39.2192 30.0988 40.233 30.5776C39.2755 32.1696 38.8775 34.0359 39.1023 35.88C39.3271 37.7241 40.1617 39.4402 41.4736 40.7556L42.6271 41.9091L40.5039 44.0323L42.8872 46.4156L45.0104 44.2924L56.7748 32.5282L58.898 30.405L56.5146 28.0217L54.3913 30.1448L53.2378 28.9913C51.8568 27.6142 50.0363 26.7652 48.0936 26.5924C46.1509 26.4197 44.2092 26.934 42.6068 28.0459C40.9171 26.9788 38.9147 26.5181 36.9285 26.7395C34.9423 26.961 33.0905 27.8513 31.6773 29.2644L31.6352 29.3065C30.8149 30.1223 30.1646 31.0927 29.7219 32.1615C29.2791 33.2303 29.0528 34.3763 29.0559 35.5332V54.493H25.6853V57.8636H29.0559V61.0973C29.0559 61.369 29.0997 61.6389 29.1857 61.8966L32.3212 71.3028C32.4885 71.8064 32.8103 72.2444 33.2408 72.5547C33.6712 72.8651 34.1886 73.0318 34.7192 73.0314H36.078L34.8492 77.2447H38.3602L39.5891 73.0314H61.5087L62.7727 77.2447H66.2908L65.0268 73.0314H67.2104C67.7411 73.0319 68.2585 72.8652 68.689 72.5549C69.1196 72.2446 69.4414 71.8064 69.6088 71.3028L72.7441 61.8966C72.8301 61.6389 72.874 61.369 72.8741 61.0973V57.8636H76.2447V54.493H72.8741ZM43.8572 31.3747C44.7858 30.4481 46.044 29.9277 47.3558 29.9277C48.6677 29.9277 49.9259 30.4481 50.8545 31.3747L52.0078 32.5282L45.0107 39.5253L43.8572 38.372C42.9307 37.4434 42.4103 36.1851 42.4103 34.8733C42.4103 33.5615 42.9307 32.3033 43.8572 31.3747V31.3747ZM69.5034 60.9603L66.6034 69.6608H35.3266L32.4266 60.9603V57.8636H69.5034V60.9603Z" fill="black"/>
</svg>
